<svg width="20" height="20" viewBox="0 0 20 20" fill="none" xmlns="http://www.w3.org/2000/svg">
<path d="M11.6667 8.05551C12.127 8.05551 12.5001 8.42861 12.5001 8.88885V13.6111C12.5001 14.0713 12.127 14.4444 11.6667 14.4444C11.2065 14.4444 10.8334 14.0713 10.8334 13.6111V8.88885C10.8334 8.42861 11.2065 8.05551 11.6667 8.05551Z" fill="#4A4A4A"/>
<path d="M9.16673 8.88885C9.16673 8.42861 8.79364 8.05551 8.3334 8.05551C7.87316 8.05551 7.50007 8.42861 7.50007 8.88885V13.6111C7.50007 14.0713 7.87316 14.4444 8.3334 14.4444C8.79364 14.4444 9.16673 14.0713 9.16673 13.6111V8.88885Z" fill="#4A4A4A"/>
<path fill-rule="evenodd" clip-rule="evenodd" d="M6.94444 4.72218C6.94444 3.03464 8.31246 1.66663 10 1.66663C11.6875 1.66663 13.0556 3.03464 13.0556 4.72218H16.389C16.8492 4.72218 17.2223 5.09528 17.2223 5.55551C17.2223 6.01575 16.8492 6.38885 16.389 6.38885H15.5555L15.5554 12.4445C15.5554 14.3113 15.5553 15.2447 15.192 15.9577C14.8724 16.5849 14.3625 17.0949 13.7353 17.4144C13.0222 17.7777 12.0888 17.7777 10.222 17.7777H9.77783C7.91094 17.7777 6.97749 17.7777 6.26443 17.4144C5.63722 17.0948 5.12727 16.5849 4.8077 15.9577C4.44439 15.2446 4.44441 14.3112 4.44445 12.4443L4.44457 6.38885H3.61118C3.15094 6.38885 2.77785 6.01575 2.77785 5.55551C2.77785 5.09528 3.15094 4.72218 3.61118 4.72218H6.94444ZM8.61111 4.72218C8.61111 3.95512 9.23294 3.33329 10 3.33329C10.7671 3.33329 11.3889 3.95512 11.3889 4.72218H8.61111ZM6.11125 6.38885H13.8888L13.8887 12.4445C13.8887 13.4054 13.8874 14.0258 13.8488 14.498C13.8118 14.9508 13.749 15.1187 13.707 15.2011C13.5472 15.5147 13.2922 15.7696 12.9786 15.9294C12.8962 15.9714 12.7284 16.0342 12.2756 16.0712C11.8034 16.1098 11.1829 16.1111 10.222 16.1111H9.77783C8.81688 16.1111 8.19641 16.1098 7.72416 16.0712C7.27138 16.0342 7.10351 15.9714 7.0211 15.9294C6.70749 15.7696 6.45252 15.5146 6.29273 15.201C6.25075 15.1186 6.18795 14.9508 6.15097 14.498C6.11239 14.0257 6.11111 13.4053 6.11113 12.4443L6.11125 6.38885Z" fill="#4A4A4A"/>
</svg>
