<svg width="149" height="171" viewBox="0 0 149 171" fill="none" xmlns="http://www.w3.org/2000/svg">
<mask id="mask0_250_2291" style="mask-type:alpha" maskUnits="userSpaceOnUse" x="0" y="0" width="149" height="172">
<path d="M148.5 40.5C148.5 51.49 146.1 118.43 141.79 127.81C130.11 153.3 104.37 171 74.5 171C44.63 171 18.89 153.3 7.21 127.81C2.9 118.43 0.5 51.49 0.5 40.5C0.5 -0.369999 33.63 0.000117124 74.5 0.000117124C115.37 0.000117124 148.5 -0.369999 148.5 40.5Z" fill="#F0F1F2"/>
</mask>
<g mask="url(#mask0_250_2291)">
<g filter="url(#filter0_d_250_2291)">
<path d="M18.3921 19.623C18.3921 18.726 19.1181 18 20.0151 18H128.769C129.666 18 130.392 18.726 130.392 19.623V169.826C130.392 170.723 129.666 171.449 128.769 171.449H20.0151C19.1181 171.449 18.3921 170.723 18.3921 169.826V19.623Z" fill="#5BA7B1"/>
<path d="M130.392 75.2754H18.3921V105.71H130.392V75.2754Z" fill="#7FBEC6"/>
<path d="M18.3921 105.71H130.392V169.826C130.392 170.723 129.666 171.449 128.769 171.449H20.0151C19.1181 171.449 18.3921 170.723 18.3921 169.826V105.71Z" fill="white"/>
<path d="M44.4859 75.1287H40.5009L38.4719 63.0117H42.4489L42.6279 64.0827L44.4859 75.1287Z" fill="white"/>
<path d="M107.241 105.851H103.7L101.295 91.5127H104.835L107.241 105.851Z" fill="#6D493C"/>
<path d="M72.9859 59.8274H41.9169L36.8669 29.7354H65.6899C66.9869 29.7354 68.0939 30.6724 68.3089 31.9514L72.9859 59.8274Z" fill="white"/>
<path d="M41.917 59.8274H37.937L33.407 32.8294C33.135 31.2104 34.383 29.7344 36.025 29.7344H36.867L41.917 59.8274Z" fill="white"/>
<path d="M113.181 63.0302L101.642 72.4852L102.084 75.1262H93.729L108.511 63.0122H86.72V59.8262H113.181V63.0302Z" fill="#6D493C"/>
<path d="M75.2051 94.1517L60.9271 105.851H56.2361L73.7321 91.5127H74.7601L75.2051 94.1517Z" fill="#6D493C"/>
<path d="M74.5489 69.1417L71.4369 71.6927L67.2459 75.1267H44.4839L42.4519 63.0127H73.5199L74.5489 69.1417Z" fill="white"/>
<path d="M86.7199 63.0132L75.1169 72.5222L80.7089 105.85H77.1689L72.0139 75.1262L72.0049 75.0712L71.9379 75.1262L34.4449 105.85H29.7539L82.0289 63.0122H33.1729V59.8262H86.7199V63.0132Z" fill="#AF5947"/>
<path d="M118.179 77.7839V91.5139H88.9929V75.1279H115.524C116.99 75.1279 118.179 76.3169 118.179 77.7839Z" fill="#D2D5D9"/>
<path d="M88.993 75.1279V91.5129H78.302L75.553 75.1279H88.993Z" fill="#D2D5D9"/>
<path d="M74.7609 91.5142H51.9419L72.0029 75.0732L74.7609 91.5142Z" fill="#D2D5D9"/>
<path d="M67.243 75.1299L47.229 91.5159H43.252L40.501 75.1299H67.243Z" fill="#D2D5D9"/>
<path d="M77.3921 117H31.3921C30.2871 117 29.3921 117.895 29.3921 119C29.3921 120.105 30.2871 121 31.3921 121H77.3921C78.4971 121 79.3921 120.105 79.3921 119C79.3921 117.895 78.4961 117 77.3921 117Z" fill="#D2D5D9"/>
<path d="M64.3921 132H34.3921C31.6311 132 29.3921 134.239 29.3921 137C29.3921 139.761 31.6311 142 34.3921 142H64.3921C67.1531 142 69.3921 139.761 69.3921 137C69.3921 134.239 67.1531 132 64.3921 132Z" fill="#00735C"/>
</g>
</g>
<defs>
<filter id="filter0_d_250_2291" x="8.39209" y="10" width="132" height="173.449" filterUnits="userSpaceOnUse" color-interpolation-filters="sRGB">
<feFlood flood-opacity="0" result="BackgroundImageFix"/>
<feColorMatrix in="SourceAlpha" type="matrix" values="0 0 0 0 0 0 0 0 0 0 0 0 0 0 0 0 0 0 127 0" result="hardAlpha"/>
<feOffset dy="2"/>
<feGaussianBlur stdDeviation="5"/>
<feColorMatrix type="matrix" values="0 0 0 0 0 0 0 0 0 0 0 0 0 0 0 0 0 0 0.3 0"/>
<feBlend mode="normal" in2="BackgroundImageFix" result="effect1_dropShadow_250_2291"/>
<feBlend mode="normal" in="SourceGraphic" in2="effect1_dropShadow_250_2291" result="shape"/>
</filter>
</defs>
</svg>
