<svg width="16" height="17" viewBox="0 0 16 17" fill="none" xmlns="http://www.w3.org/2000/svg">
<path d="M9.66672 7.05558C10.127 7.05558 10.5001 7.42867 10.5001 7.88891V12.6111C10.5001 13.0714 10.127 13.4445 9.66672 13.4445C9.20648 13.4445 8.83339 13.0714 8.83339 12.6111V7.88891C8.83339 7.42867 9.20648 7.05558 9.66672 7.05558Z" fill="#4A4A4A"/>
<path d="M7.16672 7.88891C7.16672 7.42867 6.79363 7.05558 6.33339 7.05558C5.87315 7.05558 5.50005 7.42867 5.50005 7.88891V12.6111C5.50005 13.0714 5.87315 13.4445 6.33339 13.4445C6.79363 13.4445 7.16672 13.0714 7.16672 12.6111V7.88891Z" fill="#4A4A4A"/>
<path fill-rule="evenodd" clip-rule="evenodd" d="M4.94443 3.72224C4.94443 2.03471 6.31245 0.666687 7.99999 0.666687C9.68752 0.666687 11.0555 2.03471 11.0555 3.72224H14.3889C14.8492 3.72224 15.2223 4.09534 15.2223 4.55558C15.2223 5.01581 14.8492 5.38891 14.3889 5.38891H13.5555L13.5554 11.4446C13.5553 13.3114 13.5553 14.2448 13.192 14.9578C12.8724 15.585 12.3625 16.0949 11.7353 16.4145C11.0222 16.7778 10.0888 16.7778 8.222 16.7778H7.77782C5.91092 16.7778 4.97748 16.7778 4.26442 16.4145C3.6372 16.0949 3.12726 15.5849 2.80768 14.9577C2.44437 14.2447 2.44439 13.3112 2.44443 11.4444L2.44456 5.38891H1.61117C1.15093 5.38891 0.777832 5.01581 0.777832 4.55558C0.777832 4.09534 1.15093 3.72224 1.61117 3.72224H4.94443ZM6.6111 3.72224C6.6111 2.95518 7.23292 2.33335 7.99999 2.33335C8.76705 2.33335 9.38888 2.95518 9.38888 3.72224H6.6111ZM4.11124 5.38891H11.8888L11.8887 11.4445C11.8887 12.4054 11.8874 13.0259 11.8488 13.4981C11.8118 13.9509 11.749 14.1187 11.707 14.2011C11.5472 14.5147 11.2922 14.7697 10.9786 14.9295C10.8962 14.9715 10.7284 15.0343 10.2756 15.0713C9.80336 15.1098 9.18291 15.1111 8.222 15.1111H7.77782C6.81687 15.1111 6.19639 15.1098 5.72415 15.0713C5.27137 15.0343 5.1035 14.9715 5.02109 14.9295C4.70748 14.7697 4.45251 14.5147 4.29272 14.2011C4.25073 14.1187 4.18794 13.9508 4.15095 13.498C4.11238 13.0258 4.11109 12.4053 4.11111 11.4444L4.11124 5.38891Z" fill="#4A4A4A"/>
</svg>
